<?xml version="1.0" standalone="no"?><svg xmlns="http://www.w3.org/2000/svg" viewBox="0 0 1440 320"><path fill="#5000ca" fill-opacity="1" d="M0,192L10.9,192C21.8,192,44,192,65,197.3C87.3,203,109,213,131,218.7C152.7,224,175,224,196,240C218.2,256,240,288,262,288C283.6,288,305,256,327,218.7C349.1,181,371,139,393,106.7C414.5,75,436,53,458,74.7C480,96,502,160,524,186.7C545.5,213,567,203,589,197.3C610.9,192,633,192,655,208C676.4,224,698,256,720,272C741.8,288,764,288,785,272C807.3,256,829,224,851,208C872.7,192,895,192,916,181.3C938.2,171,960,149,982,170.7C1003.6,192,1025,256,1047,288C1069.1,320,1091,320,1113,277.3C1134.5,235,1156,149,1178,112C1200,75,1222,85,1244,74.7C1265.5,64,1287,32,1309,42.7C1330.9,53,1353,107,1375,128C1396.4,149,1418,139,1429,133.3L1440,128L1440,0L1429.1,0C1418.2,0,1396,0,1375,0C1352.7,0,1331,0,1309,0C1287.3,0,1265,0,1244,0C1221.8,0,1200,0,1178,0C1156.4,0,1135,0,1113,0C1090.9,0,1069,0,1047,0C1025.5,0,1004,0,982,0C960,0,938,0,916,0C894.5,0,873,0,851,0C829.1,0,807,0,785,0C763.6,0,742,0,720,0C698.2,0,676,0,655,0C632.7,0,611,0,589,0C567.3,0,545,0,524,0C501.8,0,480,0,458,0C436.4,0,415,0,393,0C370.9,0,349,0,327,0C305.5,0,284,0,262,0C240,0,218,0,196,0C174.5,0,153,0,131,0C109.1,0,87,0,65,0C43.6,0,22,0,11,0L0,0Z"></path></svg>